<?xml version="1.0" standalone="no"?>
<!DOCTYPE svg PUBLIC "-//W3C//DTD SVG 20010904//EN"
 "http://www.w3.org/TR/2001/REC-SVG-20010904/DTD/svg10.dtd">
<svg version="1.0" xmlns="http://www.w3.org/2000/svg"
 width="1280.000000pt" height="904.000000pt" viewBox="0 0 1280.000000 904.000000"
 preserveAspectRatio="xMidYMid meet">
<g transform="translate(0.000000,904.000000) scale(0.100000,-0.100000)"
fill="#000000" stroke="none">
<path d="M5900 8165 c-82 -19 -208 -79 -285 -138 -131 -99 -236 -262 -285
-440 -11 -40 -114 -573 -230 -1186 -116 -612 -213 -1117 -216 -1122 -11 -18
-23 -7 -75 65 -280 386 -679 659 -1084 741 -190 39 -460 37 -663 -5 -56 -11
-154 -39 -217 -61 -64 -22 -123 -38 -131 -35 -11 4 -14 40 -14 198 0 216 -11
326 -41 425 -98 318 -409 659 -694 762 -360 130 -709 -30 -776 -355 -10 -50
-9 -401 5 -1820 10 -968 21 -1937 25 -2154 l8 -395 30 -88 c48 -137 112 -235
238 -363 160 -163 317 -258 510 -310 83 -22 275 -25 345 -5 147 41 278 142
335 256 17 33 34 63 40 67 5 4 27 -4 50 -18 102 -63 292 -151 410 -189 200
-66 295 -80 530 -80 224 0 350 19 511 76 47 17 88 28 90 26 3 -2 13 -35 24
-73 59 -206 201 -364 421 -469 141 -66 228 -87 391 -92 106 -4 155 -1 215 12
98 21 240 89 316 149 104 84 212 246 258 388 12 38 25 70 29 73 3 2 31 -7 61
-21 163 -77 350 -116 549 -117 461 -1 855 177 1236 557 155 156 236 254 355
429 44 64 85 117 91 117 6 0 54 -42 107 -92 107 -103 233 -195 373 -274 51
-29 102 -59 113 -68 24 -17 20 -19 -79 -34 -106 -16 -187 -62 -281 -156 -129
-129 -185 -259 -187 -427 -1 -138 32 -227 130 -359 189 -253 487 -433 887
-536 294 -75 572 -113 896 -121 453 -11 741 40 1021 183 361 185 600 509 685
929 14 70 18 136 17 300 0 207 -3 230 -162 1580 -89 754 -168 1399 -177 1433
-25 107 -72 189 -155 272 -120 120 -247 181 -418 202 -166 20 -340 -32 -459
-137 -28 -25 -57 -45 -64 -45 -7 0 -35 18 -63 39 -292 223 -672 356 -1124 392
-145 11 -319 1 -447 -26 -38 -8 -73 -15 -77 -15 -3 0 -28 38 -54 85 -174 311
-482 531 -847 606 -307 63 -702 -10 -1011 -188 -45 -26 -82 -41 -87 -36 -5 5
23 181 67 418 82 440 92 545 65 670 -57 266 -286 488 -598 581 -111 33 -328
43 -433 19z m1472 -3071 c-21 -398 -191 -1006 -389 -1393 -62 -120 -158 -271
-173 -271 -34 0 22 406 96 688 90 346 221 679 355 899 88 145 115 164 111 77z
m2363 -208 c107 -28 217 -76 290 -126 267 -184 426 -538 429 -955 1 -166 -15
-234 -69 -294 -137 -152 -529 -122 -795 59 -195 134 -345 378 -395 644 -39
202 -38 471 1 588 30 93 103 120 304 114 103 -3 159 -10 235 -30z m-6050 -126
c32 -12 50 -53 75 -174 60 -294 41 -677 -49 -942 -50 -150 -109 -251 -201
-345 -84 -85 -177 -137 -285 -160 -80 -17 -298 -16 -350 2 -38 13 -41 18 -67
94 -36 108 -57 257 -65 455 -10 278 25 488 112 666 118 242 308 381 569 414
81 10 222 5 261 -10z m6919 -2287 c4 -27 9 -96 13 -154 l6 -105 -27 -22 c-48
-37 -163 -56 -341 -56 -258 1 -473 36 -701 115 -126 43 -278 110 -288 128 -9
15 -12 15 160 -15 400 -68 784 -26 1064 117 99 50 106 50 114 -8z"/>
</g>
</svg>
